# xmcd CD database file
#
# Track frame offsets:
#	150
#	11210
#	23710
#	38520
#	49047
#	63765
#	72680
#	85735
#	101582
#	118127
#	132230
#	145555
#	158092
#	169580
#	183302
#	197652
#	211554
#	225354
#	243512
#	256497
#
# Disc length: 3651 seconds
#
# Revision: 7
# Processed by: cddbd v1.5PL3 Copyright (c) Steve Scherf et al.
# Submitted via: CDex 1.51
#
DISCID=040e4114
DTITLE=Louis Armstrong - The Best Of Louis Armstrong
DYEAR=2004
DGENRE=Jazz
TTITLE0=Hello Dolly
TTITLE1=Cabaret
TTITLE2=The Home Fire
TTITLE3=What A Wonderful World
TTITLE4=Dream A Little Dream Of Me
TTITLE5=Give Me Your Kisses
TTITLE6=The Sunshine Of Love
TTITLE7=Hello Brother
TTITLE8=Go Down Moses
TTITLE9=There Must Be a Way
TTITLE10=Fantastic, That's You
TTITLE11=I Guess I'll Get The Papers And Go Home
TTITLE12=Hellzapoppin'
TTITLE13=Nobody Knows The Trouble I've Seen
TTITLE14=Down By The Riverside
TTITLE15=Georgia On My Mind
TTITLE16=C'est Si Bon
TTITLE17=When You're Smiling
TTITLE18=Blueberry Hill
TTITLE19=Basin Street Blues
EXTD=YEAR: 2004
EXTT0=
EXTT1=
EXTT2=
EXTT3=
EXTT4=
EXTT5=
EXTT6=
EXTT7=
EXTT8=
EXTT9=
EXTT10=
EXTT11=
EXTT12=
EXTT13=
EXTT14=
EXTT15=
EXTT16=
EXTT17=
EXTT18=
EXTT19=
PLAYORDER=
